<?xml version="1.0" standalone="no"?>
<!DOCTYPE svg PUBLIC "-//W3C//DTD SVG 20010904//EN"
 "http://www.w3.org/TR/2001/REC-SVG-20010904/DTD/svg10.dtd">
<svg version="1.0" xmlns="http://www.w3.org/2000/svg"
 width="886.000000pt" height="886.000000pt" viewBox="0 0 886.000000 886.000000"
 preserveAspectRatio="xMidYMid meet">
<metadata>
Created by potrace 1.14, written by Peter Selinger 2001-2017
</metadata>
<g transform="translate(0.000000,886.000000) scale(0.100000,-0.100000)"
fill="#000000" stroke="none">
<path d="M0 4430 l0 -4430 4430 0 4430 0 0 4430 0 4430 -4430 0 -4430 0 0
-4430z m2695 2975 c157 -215 336 -511 428 -705 46 -98 107 -263 107 -290 0 -6
-28 24 -61 67 -138 175 -417 428 -559 506 l-32 17 4 113 c5 115 -7 396 -18
432 -11 35 52 -31 131 -140z m-609 -311 c332 -95 731 -350 1077 -688 71 -69
84 -78 165 -105 253 -85 544 -251 728 -415 142 -127 151 -271 18 -283 -38 -4
-76 4 -164 32 -459 145 -887 209 -1232 185 -243 -17 -547 -67 -805 -134 -51
-13 -93 -23 -93 -21 0 1 43 38 95 81 52 43 93 79 91 82 -7 6 -163 -27 -301
-65 -310 -84 -613 -228 -803 -383 -35 -28 -66 -49 -68 -47 -3 2 23 47 57 98
81 122 315 357 459 461 138 100 285 187 445 264 129 61 391 164 420 164 8 0
24 9 35 20 67 67 -46 526 -179 719 -22 34 -39 61 -37 61 2 0 44 -11 92 -26z
m-993 -1716 c-55 -81 -141 -246 -145 -277 -1 -9 -4 29 -7 83 l-6 100 -38 -34
c-48 -42 -120 -142 -146 -203 -32 -75 -44 -164 -32 -232 16 -87 47 -142 120
-216 109 -109 274 -192 494 -248 115 -30 302 -59 313 -49 4 5 52 430 54 481 0
4 -32 7 -71 7 l-72 0 7 53 c3 28 6 62 6 75 l0 22 501 0 502 0 -6 -42 c-3 -24
-11 -98 -18 -165 l-12 -123 -76 0 -77 0 7 68 c5 37 8 77 8 90 l1 22 -177 -2
-178 -3 -22 -210 c-12 -115 -22 -227 -22 -247 l-1 -38 93 0 93 0 19 55 18 55
44 0 c23 0 43 -4 43 -8 0 -15 -20 -226 -26 -269 l-5 -42 -152 -3 -152 -3 -12
-105 c-6 -58 -14 -138 -18 -177 l-7 -73 70 0 70 0 -4 -42 c-3 -24 -7 -58 -10
-75 l-5 -33 -309 0 -310 0 6 63 c8 90 5 87 78 87 77 0 70 -14 86 165 6 66 13
141 17 166 l5 46 -53 7 c-438 57 -830 267 -943 505 -29 62 -31 73 -31 182 l0
116 48 96 c73 147 215 289 417 415 36 22 68 41 72 41 4 1 -18 -36 -49 -81z
m4744 -585 c-4 -38 -9 -105 -13 -150 l-7 -83 133 0 133 0 -7 -37 c-3 -21 -6
-53 -6 -70 l0 -33 -135 0 c-74 0 -135 -4 -135 -8 0 -4 -12 -118 -26 -252 -31
-296 -30 -369 8 -406 37 -38 109 -44 166 -15 47 24 45 26 60 -52 l10 -48 -57
-29 c-76 -38 -161 -53 -273 -48 -80 3 -101 8 -147 33 -65 36 -105 92 -122 174
-10 47 -7 98 15 326 15 148 29 282 32 298 l6 27 -81 0 -80 0 4 28 c2 15 7 48
10 75 l6 47 79 0 78 0 7 66 7 65 157 79 c86 43 162 79 170 79 11 1 13 -12 8
-66z m-2482 -223 c142 -36 241 -115 302 -237 33 -67 37 -83 41 -176 9 -213
-74 -376 -252 -495 -108 -73 -176 -93 -326 -99 -147 -6 -229 9 -323 59 -282
151 -318 535 -72 784 80 81 195 145 305 168 98 21 233 20 325 -4z m1488 9 c47
-13 102 -61 128 -111 33 -65 33 -142 0 -452 -17 -159 -31 -293 -31 -297 0 -5
29 -9 65 -9 l65 0 0 -32 c0 -18 -3 -50 -6 -70 l-7 -38 -268 0 c-304 0 -274
-10 -263 88 l7 52 37 0 c38 0 38 0 44 48 26 202 56 543 51 569 -3 18 -18 42
-33 54 -37 29 -112 22 -189 -17 l-58 -30 -32 -294 c-17 -162 -32 -303 -32
-312 -1 -14 7 -18 39 -18 38 0 40 -1 40 -32 0 -18 -3 -50 -6 -70 l-7 -38 -273
0 -274 0 6 48 c11 96 7 91 82 94 l67 3 32 300 c17 165 34 324 37 353 l6 52
-70 0 c-78 0 -75 -5 -64 88 l7 52 233 0 233 0 -6 -51 -6 -51 44 28 c57 36 159
82 207 93 52 13 150 13 195 0z m3147 -14 c19 -7 43 -16 53 -20 13 -5 17 -2 17
14 0 19 6 21 50 21 58 0 54 10 40 -128 -19 -173 -14 -162 -65 -162 -35 0 -45
4 -45 16 0 25 -38 87 -67 108 -56 41 -165 28 -193 -23 -14 -28 -12 -73 5 -98
8 -11 61 -52 117 -91 202 -137 250 -199 249 -322 0 -149 -100 -267 -265 -315
-85 -25 -252 -18 -321 14 l-50 22 -20 -25 c-17 -21 -30 -26 -64 -26 -41 0 -42
1 -37 28 3 15 10 79 16 142 16 167 13 160 64 160 42 0 44 -2 50 -33 11 -60 62
-126 113 -149 94 -42 193 2 193 87 0 28 -8 40 -47 74 -234 196 -249 210 -278
262 -25 46 -29 65 -30 129 0 93 33 167 101 230 105 96 282 133 414 85z m-1187
-62 c-7 -84 -6 -83 -66 -83 l-53 0 60 -234 c35 -134 65 -231 70 -226 5 5 64
109 132 232 l123 223 -53 3 -52 3 3 37 c2 20 6 52 9 70 l5 32 181 0 181 0 -7
-37 c-3 -21 -6 -52 -6 -70 l0 -32 -62 -3 -62 -3 -341 -700 -342 -700 -141 -3
c-78 -1 -142 0 -142 4 0 4 77 139 171 301 l172 293 -108 405 -108 405 -67 0
-66 0 3 38 c2 20 6 52 9 70 l5 32 279 0 279 0 -6 -57z"/>
<path d="M3115 4450 c-112 -34 -188 -232 -189 -490 -1 -132 12 -186 55 -235
84 -95 232 -50 294 89 43 97 60 200 60 356 0 136 -2 149 -25 194 -14 27 -37
58 -51 69 -31 22 -100 31 -144 17z"/>
</g>
</svg>
